<svg width="96" height="96" xmlns="http://www.w3.org/2000/svg" xmlns:xlink="http://www.w3.org/1999/xlink" xml:space="preserve" overflow="hidden"><defs><clipPath id="clip0"><rect x="603" y="312" width="96" height="96"/></clipPath></defs><g clip-path="url(#clip0)" transform="translate(-603 -312)"><path d="M659.771 323 661.771 323 661.771 334 659.771 334Z" fill="#FFFFFF"/><path d="M679.771 352 690.771 352 690.771 354 679.771 354Z" fill="#FFFFFF"/><path d="M630.771 352 641.771 352 641.771 354 630.771 354Z" fill="#FFFFFF"/><path d="M673.5 367.142 674.914 365.727 682.692 373.506 681.278 374.92Z" fill="#FFFFFF"/><path d="M638.851 332.494 640.265 331.08 648.044 338.858 646.629 340.272Z" fill="#FFFFFF"/><path d="M673.5 338.858 681.278 331.08 682.692 332.494 674.914 340.272Z" fill="#FFFFFF"/><path d="M660.31 338.007C652.628 338.301 646.388 344.312 645.806 351.978 645.676 353.882 645.912 355.794 646.501 357.61 647.602 358.186 648.643 358.872 649.607 359.657 649.628 359.674 649.633 359.669 649.619 359.646 648.099 357.122 647.489 354.153 647.891 351.233 648.859 344.119 655.411 339.137 662.525 340.104 669.639 341.072 674.622 347.624 673.654 354.738 672.934 360.031 669.049 364.345 663.86 365.614 664.516 366.077 665.134 366.591 665.709 367.151 673.529 364.428 677.66 355.882 674.938 348.062 672.783 341.874 666.859 337.802 660.31 338.007Z" fill="#FFFFFF"/><path d="M620.56 398.424 668.572 398.524 668.583 398.524C674.348 398.384 678.908 393.598 678.769 387.833 678.768 387.789 678.766 387.745 678.765 387.701 678.563 381.996 673.862 377.484 668.153 377.517 668.153 377.517 667.608 377.519 667.427 377.522 666.854 370.769 661.232 365.564 654.454 365.512 653.337 365.512 652.224 365.654 651.142 365.935 646.672 358.617 637.116 356.309 629.799 360.779 625.622 363.331 622.893 367.702 622.435 372.575 622.028 372.535 621.618 372.515 621.208 372.515 617.264 372.535 613.539 374.333 611.069 377.408 608.146 381.221 607.524 386.321 609.446 390.725 611.413 395.173 615.704 398.146 620.56 398.424ZM612.631 378.658C614.721 376.056 617.872 374.534 621.208 374.515 621.555 374.515 621.902 374.531 622.239 374.565L624.225 374.76 624.424 372.774C624.96 367.016 629.097 362.236 634.719 360.88 640.427 359.464 646.392 361.932 649.43 366.968L650.2 368.244 651.643 367.871C652.561 367.633 653.505 367.512 654.454 367.512 656.763 367.502 659.013 368.241 660.867 369.619L660.896 369.64 660.926 369.661C663.569 371.506 665.228 374.455 665.432 377.672L665.574 379.563 668.153 379.517C672.787 379.483 676.606 383.145 676.766 387.777 676.855 390.043 676.023 392.249 674.458 393.891 672.933 395.526 670.812 396.476 668.576 396.524L620.63 396.424C616.539 396.164 612.932 393.652 611.27 389.904 609.647 386.187 610.168 381.881 612.631 378.658Z" fill="#FFFFFF"/></g></svg>