<svg width="96" height="96" xmlns="http://www.w3.org/2000/svg" xmlns:xlink="http://www.w3.org/1999/xlink" xml:space="preserve" overflow="hidden"><defs><clipPath id="clip0"><rect x="377" y="385" width="96" height="96"/></clipPath></defs><g clip-path="url(#clip0)" transform="translate(-377 -385)"><path d="M455.6 404.005C456.4 404.035 457.025 404.705 457 405.505L457 446.817C456.98 447.582 456.365 448.197 455.6 448.217L443.4 448.217 443.4 459.117 433.232 448.72 432.644 448.12 394.4 448.12C393.644 448.137 393.017 447.537 393 446.781 393 446.76 393 446.74 393 446.72L393 405.406C393.02 404.641 393.635 404.026 394.4 404.006L455.6 404.006M455.6 402.006 394.4 402.006C392.53 402.026 391.02 403.536 391 405.406L391 446.717C390.984 448.579 392.482 450.102 394.344 450.117 394.362 450.117 394.381 450.117 394.4 450.117L431.8 450.117 445.4 464.017 445.4 450.217 455.6 450.217C457.47 450.198 458.98 448.687 459 446.817L459 405.506C459.023 403.602 457.504 402.038 455.6 402.006Z" fill="#FFFFFF"/><path d="M424.848 442C424.296 442 423.848 441.552 423.848 441 423.848 440.994 423.848 440.989 423.848 440.983 423.848 440.974 423.806 438.849 421.439 435.983 420.284 434.516 419.613 432.727 419.519 430.862 418.372 433.295 418.372 436.112 419.519 438.545 419.742 439.05 419.514 439.641 419.009 439.864 418.725 439.989 418.399 439.976 418.127 439.828 415.387 438.338 411.603 432.319 414.142 426.128 415.271 424.006 416.843 422.151 418.752 420.689 420.201 419.489 424.734 415.211 422.218 410.469 421.959 409.981 422.145 409.376 422.632 409.117 422.901 408.974 423.221 408.961 423.5 409.083 426.802 410.53 429.268 413.4 430.2 416.883 431.011 419.694 430.482 422.723 428.767 425.093 428.221 425.817 428.048 426.757 428.301 427.628 428.804 428.979 430.307 429.666 431.658 429.163 431.927 429.063 432.178 428.918 432.401 428.736 433.145 428.123 433.482 427.144 433.271 426.203 433.14 425.667 433.468 425.125 434.005 424.994 434.39 424.9 434.795 425.042 435.036 425.357 437.036 427.98 436.836 432.23 435.489 434.851 433.73 439.179 429.52 442.007 424.848 442ZM420.767 426.408C421.319 426.408 421.767 426.856 421.766 427.409 421.766 427.493 421.755 427.578 421.734 427.66 421.724 427.7 420.684 431.907 422.983 434.708 424.301 436.212 425.238 438.011 425.714 439.953 425.714 439.957 425.718 439.961 425.723 439.96 425.723 439.96 425.724 439.96 425.724 439.96 429.266 439.635 432.327 437.355 433.653 434.055L433.692 433.971C434.376 432.561 434.651 430.987 434.485 429.428 434.483 429.423 434.478 429.421 434.474 429.422 434.471 429.423 434.469 429.425 434.468 429.428 434.247 429.732 433.992 430.01 433.708 430.255 432.464 431.373 430.69 431.679 429.143 431.042 427.841 430.591 426.826 429.556 426.4 428.246 425.957 426.768 426.234 425.167 427.147 423.923 428.52 422.043 428.935 419.63 428.268 417.4 427.725 415.365 426.544 413.556 424.9 412.24 424.896 412.237 424.889 412.237 424.886 412.242 424.884 412.244 424.884 412.246 424.884 412.249 425.427 416.135 422.949 419.817 420.031 422.23 418.38 423.486 417.006 425.07 415.997 426.882 414.894 429.688 415.147 432.845 416.682 435.439 416.684 435.444 416.69 435.447 416.695 435.444 416.7 435.443 416.702 435.438 416.701 435.433 416.463 432.172 417.691 428.976 420.051 426.713 420.239 426.519 420.497 426.409 420.767 426.408Z" fill="#FFFFFF"/></g></svg>