<svg width="96" height="96" xmlns="http://www.w3.org/2000/svg" xmlns:xlink="http://www.w3.org/1999/xlink" xml:space="preserve" overflow="hidden"><defs><clipPath id="clip0"><rect x="420" y="280" width="96" height="96"/></clipPath></defs><g clip-path="url(#clip0)" transform="translate(-420 -280)"><path d="M452.1 316C444.9 322 441 327.5 439.8 330.4 433.1 346.6 442.9 362.3 450 366.2L452.6 367.6 451.4 364.9C448.8 359 446 347.8 454.9 336.7 454.4 341.4 454.4 349.6 459.7 356 466.7 364.6 466.8 371 466.8 371.1L466.8 372.1 467.8 372.1C480 372.1 491.1 364.7 495.7 353.4 499.2 346.6 499.8 335.6 494.7 328.8L491.8 324.9 493 329.6C493.7 332.9 492.6 336.2 490 338.4 487.6 340.6 484.2 341.2 481.2 339.9 478.6 339 476.6 337 475.8 334.5 474.9 331.5 475.5 328.3 477.4 325.9 481.7 320 483 312.3 481 304.6 478.6 295.5 472.1 287.9 463.4 284.1L460.8 283 462.1 285.5C469.7 299.8 456.3 312.5 452.1 316ZM466 287.7C472.4 291.6 477.1 297.8 479 305.1 480.9 312.2 479.7 319.3 475.6 324.7 473.4 327.7 472.7 331.5 473.8 335.1 474.8 338.2 477.3 340.7 480.4 341.8 484.1 343.3 488.3 342.6 491.2 339.9 493.2 338.2 494.5 335.9 494.9 333.4 497.3 339.4 496.4 347.4 493.8 352.5 489.6 362.8 479.8 369.7 468.7 370.1 468.4 367.8 467.2 362 461.2 354.8 454.3 346.4 457.3 334.2 457.4 333.7L458.3 330.1 455.7 332.8C444.8 344.1 446.2 356 448.3 362.7 442.3 357.3 436.1 344.5 441.5 331.3 442.7 328.4 446.8 323 453.2 317.7 462 310.4 469.3 298.9 464.9 287.3 465.1 287.1 465.7 287.5 466 287.7Z" fill="#FFFFFF"/></g></svg>