<svg width="96" height="96" xmlns="http://www.w3.org/2000/svg" xmlns:xlink="http://www.w3.org/1999/xlink" xml:space="preserve" overflow="hidden"><defs><clipPath id="clip0"><rect x="449" y="360" width="96" height="96"/></clipPath></defs><g clip-path="url(#clip0)" transform="translate(-449 -360)"><path d="M522.9 409.3C524.7 416.6 517.2 423.8 509.8 420.8 503.6 418.6 501.2 411.4 505.5 405.2 515.2 392.3 508.1 372 492 365 499.3 378.8 488.1 391.5 481.7 396.8 475.3 402.1 471 407.6 469.7 410.8 463.2 426.6 472.9 441.7 479.5 445.3 476.5 438.5 473.7 425.5 485.5 413.3 485.5 413.3 482.1 426.3 489.5 435.3 496.9 444.3 496.8 451 496.8 451 508.3 451 519.2 444.1 523.8 432.8 527.3 426.1 527.6 415.5 522.9 409.3" fill="#FFFFFF"/></g></svg>