<svg width="96" height="96" xmlns="http://www.w3.org/2000/svg" xmlns:xlink="http://www.w3.org/1999/xlink" xml:space="preserve" overflow="hidden"><defs><clipPath id="clip0"><rect x="829" y="328" width="96" height="96"/></clipPath></defs><g clip-path="url(#clip0)" transform="translate(-829 -328)"><path d="M885 387C884.915 387 884.836 387.018 884.753 387.025 884.67 387.032 884.59 387 884.505 387L851 387C849.343 387 848 388.343 848 390 848 391.657 849.343 393 851 393L884.505 393C884.59 393 884.669 392.982 884.752 392.975 884.835 392.968 884.914 393 885 393 886.657 393.001 887.999 394.345 887.998 396.002 887.997 397.659 886.653 399.001 884.996 399 883.906 398.999 882.901 398.407 882.373 397.452 881.593 395.99 879.776 395.437 878.314 396.217 876.852 396.996 876.299 398.814 877.079 400.276 877.095 400.305 877.111 400.335 877.128 400.364 879.538 404.711 885.016 406.281 889.363 403.871 893.71 401.461 895.281 395.983 892.87 391.636 891.284 388.775 888.271 387 885 387Z" fill="#FFFFFF"/><path d="M846 369 874 369C880.075 368.999 884.999 364.074 884.999 357.999 884.998 351.923 880.072 346.999 873.997 347 868.47 347.001 863.801 351.103 863.09 356.585 862.878 358.229 864.039 359.733 865.683 359.944 867.327 360.155 868.831 358.995 869.042 357.351 869.4 354.613 871.911 352.684 874.649 353.042 877.387 353.401 879.316 355.911 878.957 358.649 878.631 361.138 876.51 363 874 363L846 363C844.343 363 843 364.343 843 366 843 367.657 844.343 369 846 369Z" fill="#FFFFFF"/><path d="M904 351C895.709 351.007 888.993 357.733 889 366.024 889.001 367.277 889.159 368.525 889.47 369.739 889.882 371.344 891.517 372.311 893.122 371.899 894.727 371.487 895.694 369.852 895.282 368.247 894.041 363.434 896.937 358.526 901.75 357.285 906.563 356.044 911.471 358.94 912.712 363.753 913.953 368.566 911.057 373.474 906.244 374.715 905.511 374.904 904.757 375 904 375L838 375C836.343 375 835 376.343 835 378 835 379.657 836.343 381 838 381L904 381C912.284 381 919 374.284 919 366 919 357.716 912.284 351 904 351Z" fill="#FFFFFF"/></g></svg>