<svg width="96" height="96" xmlns="http://www.w3.org/2000/svg" xmlns:xlink="http://www.w3.org/1999/xlink" xml:space="preserve" overflow="hidden"><defs><clipPath id="clip0"><rect x="814" y="439" width="96" height="96"/></clipPath></defs><g clip-path="url(#clip0)" transform="translate(-814 -439)"><path d="M820.914 524.464C821.522 524.815 822.212 525 822.914 525L901.09 525C903.299 524.998 905.088 523.205 905.086 520.996 905.085 520.295 904.9 519.607 904.55 519L865.47 451C864.371 449.084 861.927 448.421 860.01 449.52 859.394 449.873 858.883 450.384 858.53 451L819.45 519C818.345 520.913 819.001 523.359 820.914 524.464ZM821.184 520 860.265 452C860.441 451.692 860.697 451.436 861.005 451.26 861.307 451.083 861.65 450.989 862 450.989 862.718 450.991 863.38 451.377 863.736 452L902.818 520C903.37 520.957 903.042 522.18 902.086 522.732 901.783 522.907 901.44 522.999 901.09 523L822.912 523C821.807 522.998 820.914 522.101 820.916 520.996 820.917 520.646 821.009 520.303 821.184 520Z" fill="#FFFFFF"/><path d="M862.014 510.337C864.549 510.341 866.607 508.29 866.612 505.755 866.615 503.607 865.129 501.744 863.034 501.27L863 501.27 863 479 861 479 861 501.272C858.529 501.836 856.982 504.297 857.546 506.768 858.022 508.853 859.875 510.334 862.014 510.337Z" fill="#FFFFFF"/><path d="M862 514.27 862.75 514.27C867.455 513.835 870.917 509.669 870.483 504.963 870.26 502.549 869.023 500.343 867.08 498.893L867.08 474.137C867.088 473.971 867.088 473.805 867.08 473.637 866.948 470.928 864.712 468.799 862 468.8 861.916 468.8 861.831 468.8 861.746 468.806 858.957 468.942 856.799 471.3 856.91 474.09L856.91 498.841C853.116 501.662 852.328 507.024 855.149 510.818 856.76 512.985 859.3 514.264 862 514.27ZM858.1 500.446 858.907 499.846 858.907 474.039 858.907 473.989C858.872 473.186 859.16 472.403 859.707 471.814 860.256 471.203 861.027 470.838 861.847 470.8 861.898 470.8 861.947 470.8 861.998 470.8 863.645 470.799 865.002 472.092 865.081 473.737 865.081 473.837 865.081 473.943 865.081 474.045L865.081 474.092 865.081 499.9 865.89 500.5C868.789 502.67 869.381 506.779 867.212 509.678 866.12 511.138 864.469 512.077 862.657 512.27L862 512.27C858.377 512.262 855.446 509.318 855.455 505.695 855.459 503.626 856.44 501.681 858.1 500.446Z" fill="#FFFFFF"/></g></svg>