<svg width="96" height="96" xmlns="http://www.w3.org/2000/svg" xmlns:xlink="http://www.w3.org/1999/xlink" xml:space="preserve" overflow="hidden"><defs><clipPath id="clip0"><rect x="851" y="267" width="96" height="96"/></clipPath></defs><g clip-path="url(#clip0)" transform="translate(-851 -267)"><path d="M900.14 328.27 900.14 306.73 897.9 306.73 897.9 328.27C894.875 328.889 892.925 331.842 893.543 334.867 894.162 337.891 897.115 339.842 900.14 339.223 903.165 338.605 905.115 335.651 904.497 332.627 904.048 330.433 902.334 328.719 900.14 328.27Z" fill="#FFFFFF"/><path d="M941.55 347 902.47 279C901.371 277.084 898.927 276.421 897.01 277.52 896.394 277.873 895.883 278.384 895.53 279L856.45 347C855.345 348.913 856.001 351.359 857.914 352.464 858.521 352.815 859.209 352.999 859.91 353L938.09 353C940.299 352.998 942.088 351.205 942.086 348.996 942.085 348.295 941.9 347.607 941.55 347ZM907.31 335.63C906.511 339.257 903.45 341.946 899.75 342.27L899.75 342.27 899 342.27C894.273 342.26 890.448 338.42 890.458 333.692 890.464 330.57 892.17 327.698 894.91 326.2L894.91 302.09C894.798 299.834 896.537 297.914 898.793 297.803 901.049 297.691 902.968 299.43 903.08 301.686 903.087 301.82 903.087 301.955 903.08 302.09L903.08 326.25C906.432 328.076 908.16 331.909 907.31 335.63Z" fill="#FFFFFF"/></g></svg>