<svg width="96" height="96" xmlns="http://www.w3.org/2000/svg" xmlns:xlink="http://www.w3.org/1999/xlink" xml:space="preserve" overflow="hidden"><defs><clipPath id="clip0"><rect x="389" y="279" width="96" height="96"/></clipPath></defs><g clip-path="url(#clip0)" transform="translate(-389 -279)"><path d="M439 289 438 289 438 286C438 285.448 437.552 285 437 285 436.448 285 436 285.448 436 286L436 289 435 289C413.8 290 397 305.7 397 325 396.969 325.521 397.366 325.969 397.887 326 397.924 326.002 397.962 326.002 398 326 398.521 326.031 398.969 325.634 399 325.113 399.002 325.076 399.002 325.038 399 325 399 319 404.4 314.2 411 314.2 417.6 314.2 423 319 423 325 423 325.552 423.448 326 424 326 424.552 326 425 325.552 425 325 425.091 320.996 427.422 317.382 431.033 315.648 432.581 314.888 434.276 314.473 436 314.43L436 353.889C435.683 354.171 435.501 354.575 435.5 355L435.5 359.322C435.536 361.423 433.985 363.215 431.9 363.48 429.702 363.701 427.741 362.098 427.52 359.9 427.507 359.767 427.5 359.634 427.5 359.5 427.501 358.672 426.83 357.999 426.001 357.999 425.883 357.999 425.765 358.012 425.65 358.04 424.944 358.232 424.466 358.888 424.5 359.618 424.57 363.488 427.763 366.568 431.633 366.499 431.81 366.495 431.986 366.486 432.162 366.469 435.82 366.033 438.557 362.903 438.5 359.22L438.5 355C438.499 354.575 438.317 354.171 438 353.889L438 314.427C439.45 314.467 440.88 314.775 442.218 315.334 446.209 316.909 448.877 320.711 449 325L449 325 449 325C449 325.552 449.448 326 450 326 450.552 326 451 325.552 451 325 451 319 456.4 314.2 463 314.2 469.6 314.2 475 319 475 325 475 325.552 475.448 326 476 326 476.552 326 477 325.552 477 325 477 305.7 460.2 290 439 289ZM411 312.2C406.839 312.159 402.861 313.907 400.077 317 400.062 317.017 400.054 317.013 400.06 316.99 403.7 303.516 416.312 293.109 432.082 291.249 427.437 295.584 424.05 305.909 423.207 318.718 423.207 318.734 423.199 318.737 423.19 318.718 420.521 314.59 415.915 312.127 411 312.2ZM443.017 313.5C441.226 312.747 439.299 312.372 437.357 312.4L436.615 312.4C434.364 312.364 432.138 312.867 430.121 313.868 428.202 314.844 426.545 316.265 425.288 318.012 425.277 318.027 425.27 318.024 425.271 318.005 426.402 303.424 430.971 291.94 436.424 291.085L437.576 291.085C443.033 291.94 447.6 303.423 448.729 318 448.729 318.019 448.722 318.022 448.711 318.007 447.252 316.021 445.285 314.464 443.017 313.5ZM463 312.2C458.084 312.128 453.478 314.593 450.81 318.723 450.801 318.737 450.794 318.735 450.793 318.723 449.95 305.913 446.563 295.588 441.918 291.253 457.688 293.109 470.3 303.516 473.94 316.992 473.946 317.015 473.94 317.019 473.923 317.002 471.14 313.908 467.161 312.159 463 312.2Z" fill="#FFFFFF"/></g></svg>