<svg width="96" height="96" xmlns="http://www.w3.org/2000/svg" xmlns:xlink="http://www.w3.org/1999/xlink" xml:space="preserve" overflow="hidden"><defs><clipPath id="clip0"><rect x="477" y="283" width="96" height="96"/></clipPath></defs><g clip-path="url(#clip0)" transform="translate(-477 -283)"><path d="M527 293 527 290.5C527 289.4 526.1 288.5 525 288.5 523.9 288.5 523 289.4 523 290.5L523 293C501.8 294 485 309.7 485 329 485 329.6 485.4 330 486 330 486.6 330 487 329.6 487 329 487 323 492.4 318.2 499 318.2 505.6 318.2 511 323 511 329 511 329.6 511.4 330 512 330 512.6 330 513 329.6 513 329 513 323.7 517.3 319.2 523 318.4L523 359 522 359 522 363.5C522 364.6 521.1 365.5 520 365.5 518.9 365.5 518 364.6 518 363.5 518 361.8 516.7 360.5 515 360.5 513.3 360.5 512 361.8 512 363.5 512 367.9 515.6 371.5 520 371.5 524.4 371.5 528 367.9 528 363.5L528 359 527 359 527 318.4C532.7 319.3 537 323.7 537 329 537 329.6 537.4 330 538 330 538.6 330 539 329.6 539 329 539 323 544.4 318.2 551 318.2 557.6 318.2 563 323 563 329 563 329.6 563.4 330 564 330 564.6 330 565 329.6 565 329 565 309.7 548.2 294 527 293Z" fill="#FFFFFF"/></g></svg>