<svg width="96" height="96" xmlns="http://www.w3.org/2000/svg" xmlns:xlink="http://www.w3.org/1999/xlink" xml:space="preserve" overflow="hidden"><defs><clipPath id="clip0"><rect x="405" y="210" width="96" height="96"/></clipPath></defs><g clip-path="url(#clip0)" transform="translate(-405 -210)"><path d="M428 271C428 284.807 439.193 296 453 296 466.807 296 478 284.807 478 271 478 255.1 453 220 453 220 453 220 428 255.2 428 271ZM476 271C476 283.703 465.703 294 453 294 440.297 294 430 283.703 430 271 430 258.306 447.506 231.59 453.002 223.516 458.501 231.572 476 258.22 476 271Z" fill="#FFFFFF"/></g></svg>