<svg width="96" height="96" xmlns="http://www.w3.org/2000/svg" xmlns:xlink="http://www.w3.org/1999/xlink" xml:space="preserve" overflow="hidden"><defs><clipPath id="clip0"><rect x="406" y="491" width="96" height="96"/></clipPath></defs><g clip-path="url(#clip0)" transform="translate(-406 -491)"><path d="M482.626 522.573C482.351 522.094 481.74 521.929 481.261 522.204L474.681 525.98 476.268 520.12C476.412 519.587 476.097 519.037 475.564 518.893 475.031 518.749 474.481 519.064 474.337 519.597L472.228 527.388 466.876 530.46 469.94 519.14C470.079 518.605 469.758 518.06 469.223 517.921 468.697 517.785 468.158 518.093 468.01 518.616L464.423 531.868 459.508 534.688C458.399 533.272 456.788 532.338 455.008 532.08L455.008 526.414 464.715 516.707C465.105 516.316 465.105 515.683 464.715 515.292 464.324 514.902 463.69 514.902 463.3 515.293L455.007 523.586 455.007 517.414 460.714 511.707C461.098 511.31 461.087 510.677 460.689 510.293 460.302 509.919 459.688 509.919 459.3 510.293L455.007 514.586 455.007 507C455.007 506.448 454.559 506 454.007 506 453.455 506 453.007 506.448 453.007 507L453.007 514.586 448.714 510.293C448.317 509.909 447.684 509.92 447.3 510.318 446.926 510.705 446.926 511.319 447.3 511.707L453.007 517.414 453.007 523.586 444.714 515.293C444.317 514.909 443.684 514.92 443.3 515.318 442.926 515.705 442.926 516.32 443.3 516.707L453.007 526.414 453.007 532.08C451.255 532.333 449.664 533.24 448.555 534.62L443.677 531.741 440.25 518.447C440.112 517.912 439.566 517.59 439.031 517.729 438.497 517.867 438.175 518.412 438.313 518.947L441.239 530.3 435.924 527.163 433.911 519.35C433.773 518.815 433.227 518.493 432.693 518.631 432.158 518.77 431.836 519.315 431.974 519.85L433.489 525.728 426.956 521.872C426.479 521.591 425.864 521.75 425.583 522.227 425.303 522.705 425.462 523.319 425.939 523.6L432.472 527.456 426.593 528.97C426.058 529.106 425.735 529.651 425.871 530.186 425.984 530.63 426.384 530.94 426.842 530.939 426.926 530.939 427.01 530.928 427.092 530.907L434.907 528.893 440.223 532.03 428.865 534.951C428.33 535.087 428.007 535.632 428.143 536.167 428.256 536.611 428.656 536.921 429.114 536.92 429.198 536.92 429.282 536.91 429.364 536.889L442.658 533.463 447.533 536.341C446.84 538.016 446.829 539.896 447.503 541.579L442.592 544.4 429.34 540.811C428.813 540.645 428.252 540.938 428.086 541.465 427.921 541.992 428.214 542.553 428.74 542.719 428.766 542.727 428.792 542.734 428.818 542.74L440.139 545.805 434.786 548.878 427 546.77C426.473 546.604 425.912 546.897 425.746 547.424 425.581 547.951 425.874 548.512 426.4 548.678 426.426 548.686 426.452 548.693 426.478 548.699L432.337 550.286 425.758 554.062C425.279 554.338 425.115 554.95 425.391 555.429 425.667 555.908 426.279 556.072 426.758 555.796L433.338 552.02 431.752 557.88C431.608 558.412 431.921 558.96 432.452 559.106 432.537 559.13 432.625 559.142 432.713 559.142 433.165 559.142 433.56 558.839 433.678 558.403L435.787 550.612 441.14 547.54 438.069 558.86C437.924 559.393 438.239 559.943 438.772 560.088 439.306 560.232 439.855 559.917 440 559.384L443.587 546.132 448.502 543.312C449.611 544.728 451.222 545.662 453.002 545.92L453.002 551.586 443.3 561.293C442.916 561.69 442.927 562.323 443.325 562.707 443.712 563.081 444.327 563.081 444.714 562.707L453.007 554.414 453.007 560.586 447.3 566.293C446.916 566.69 446.927 567.323 447.325 567.707 447.712 568.081 448.327 568.081 448.714 567.707L453.007 563.414 453.007 571C453.007 571.552 453.455 572 454.007 572 454.559 572 455.007 571.552 455.007 571L455.007 563.414 459.3 567.707C459.684 568.104 460.317 568.115 460.714 567.732 461.111 567.348 461.122 566.715 460.739 566.318 460.73 566.309 460.722 566.301 460.714 566.293L455.007 560.586 455.007 554.414 463.3 562.707C463.684 563.104 464.317 563.115 464.714 562.732 465.111 562.348 465.122 561.715 464.739 561.318 464.73 561.309 464.722 561.301 464.714 561.293L455.007 551.586 455.007 545.92C456.759 545.667 458.35 544.76 459.459 543.38L464.337 546.259 467.76 559.553C467.874 559.995 468.271 560.303 468.727 560.304 468.811 560.304 468.895 560.293 468.977 560.272 469.511 560.134 469.833 559.59 469.696 559.055L466.77 547.7 472.085 550.837 474.1 558.65C474.214 559.091 474.612 559.4 475.068 559.4 475.152 559.4 475.236 559.39 475.318 559.369 475.853 559.231 476.175 558.686 476.037 558.151 476.037 558.151 476.037 558.151 476.037 558.15L474.522 552.272 481.055 556.128C481.531 556.409 482.144 556.25 482.424 555.774 482.705 555.299 482.547 554.686 482.071 554.405L475.539 550.549 481.418 549.035C481.953 548.897 482.275 548.351 482.137 547.817 481.998 547.282 481.453 546.96 480.918 547.098L473.1 549.112 467.785 545.975 479.142 543.049C479.677 542.911 479.999 542.365 479.861 541.83 479.723 541.295 479.177 540.973 478.642 541.111L465.351 544.537 460.477 541.659C461.171 539.984 461.181 538.104 460.506 536.421L465.417 533.6 478.669 537.186C478.754 537.21 478.842 537.222 478.931 537.222 479.483 537.221 479.93 536.773 479.93 536.221 479.929 535.77 479.627 535.375 479.192 535.257L467.87 532.194 473.224 529.122 481.015 531.23C481.1 531.254 481.188 531.266 481.276 531.266 481.828 531.265 482.275 530.817 482.275 530.265 482.274 529.814 481.972 529.419 481.537 529.301L475.677 527.714 482.256 523.938C482.735 523.663 482.901 523.052 482.626 522.573 482.626 522.573 482.626 522.573 482.626 522.573ZM454.005 544C451.244 544 449.005 541.761 449.005 539 449.005 536.239 451.244 534 454.005 534 456.766 534 459.005 536.239 459.005 539 459.002 541.76 456.765 543.997 454.005 544Z" fill="#FFFFFF"/></g></svg>