<svg width="96" height="96" xmlns="http://www.w3.org/2000/svg" xmlns:xlink="http://www.w3.org/1999/xlink" xml:space="preserve" overflow="hidden"><defs><clipPath id="clip0"><rect x="485" y="491" width="96" height="96"/></clipPath></defs><g clip-path="url(#clip0)" transform="translate(-485 -491)"><path d="M561.7 553.3 557.2 550.7 560.7 549.8C561.8 549.5 562.4 548.4 562.1 547.4 561.8 546.4 560.7 545.7 559.7 546L552.3 548 549.4 546.3 558.4 543.9C559.5 543.6 560.1 542.5 559.8 541.5 559.5 540.5 558.4 539.8 557.4 540.1L544.5 543.5 540.7 541.3C540.9 540.6 541 539.9 541 539.2 541 538.5 540.9 537.7 540.7 537.1L544.5 534.9 557.4 538.3C557.6 538.3 557.7 538.4 557.9 538.4 558.8 538.4 559.6 537.8 559.8 536.9 560.1 535.8 559.5 534.7 558.4 534.5L549.4 532.1 552.3 530.4 559.7 532.4C559.9 532.4 560 532.5 560.2 532.5 561.1 532.5 561.9 531.9 562.1 531 562.4 529.9 561.8 528.8 560.7 528.6L557.2 527.7 561.7 525.1C562.7 524.5 563 523.3 562.4 522.4 561.8 521.4 560.6 521.1 559.7 521.7L555.2 524.3 556.1 520.8C556.4 519.7 555.8 518.6 554.7 518.4 553.6 518.1 552.5 518.7 552.3 519.8L550.3 527.2 547.4 528.9 549.8 519.9C550.1 518.8 549.5 517.7 548.4 517.5 547.3 517.2 546.2 517.8 546 518.9L542.6 531.8 538.8 534C537.8 533 536.5 532.2 535.1 531.9L535.1 527.5 544.5 518.1C545.3 517.3 545.3 516.1 544.5 515.3 543.7 514.5 542.5 514.5 541.7 515.3L535 521.2 535 517.9 540.4 512.5C541.2 511.7 541.2 510.5 540.4 509.7 539.6 508.9 538.4 508.9 537.6 509.7L535 512.2 535 507C535 505.9 534.1 505 533 505 531.9 505 531 505.9 531 507L531 512.2 528.4 509.6C527.6 508.8 526.4 508.8 525.6 509.6 524.8 510.4 524.8 511.6 525.6 512.4L531 517.8 531 521.1 524.4 514.5C523.6 513.7 522.4 513.7 521.6 514.5 520.8 515.3 520.8 516.5 521.6 517.3L531 526.7 531 531.1C529.6 531.5 528.3 532.2 527.3 533.2L523.5 531 520 518.3C519.7 517.2 518.6 516.6 517.6 516.9 516.5 517.2 515.9 518.3 516.2 519.3L518.6 528.3 515.7 526.6 513.7 519.2C513.4 518.1 512.3 517.5 511.3 517.8 510.2 518.1 509.6 519.2 509.9 520.2L510.8 523.7 506.3 521.1C505.3 520.5 504.1 520.9 503.6 521.8 503 522.8 503.4 524 504.3 524.5L508.8 527.1 505.3 528C504.2 528.3 503.6 529.4 503.9 530.4 504.1 531.3 504.9 531.9 505.8 531.9 506 531.9 506.1 531.9 506.3 531.8L513.7 529.8 516.6 531.5 507.6 533.9C506.5 534.2 505.9 535.3 506.2 536.3 506.4 537.2 507.2 537.8 508.1 537.8 508.3 537.8 508.4 537.8 508.6 537.7L521.5 534.3 525.3 536.5C525.1 537.5 525 538.3 525 539 525 539.7 525.1 540.5 525.3 541.1L521.5 543.3 508.6 539.9C507.5 539.6 506.4 540.2 506.2 541.3 506 542.4 506.5 543.5 507.6 543.7L516.6 546.1 513.7 547.8 506.3 545.8C505.2 545.5 504.1 546.1 503.9 547.2 503.7 548.3 504.2 549.4 505.3 549.6L508.8 550.5 504.3 553.1C503.3 553.7 503 554.9 503.6 555.8 504 556.4 504.6 556.8 505.3 556.8 505.6 556.8 506 556.7 506.3 556.5L510.8 553.9 509.9 557.4C509.6 558.5 510.2 559.6 511.3 559.8 511.5 559.8 511.6 559.9 511.8 559.9 512.7 559.9 513.5 559.3 513.7 558.4L515.7 551 518.6 549.3 516.2 558.3C515.9 559.4 516.5 560.5 517.6 560.7 517.8 560.7 517.9 560.8 518.1 560.8 519 560.8 519.8 560.2 520 559.3L523.4 546.4 527.2 544.2C528.2 545.2 529.5 546 530.9 546.3L530.9 550.7 521.5 560.1C520.7 560.9 520.7 562.1 521.5 562.9 522.3 563.7 523.5 563.7 524.3 562.9L530.9 556.3 530.9 559.6 525.5 565C524.7 565.8 524.7 567 525.5 567.8 526.3 568.6 527.5 568.6 528.3 567.8L530.9 565.2 530.9 571C530.9 572.1 531.8 573 532.9 573 534 573 534.9 572.1 534.9 571L534.9 565.8 537.5 568.4C538 568.8 538.5 569 539 569 539.5 569 540 568.8 540.4 568.4 541.2 567.6 541.2 566.4 540.4 565.6L535 560.2 535 556.9 541.6 563.5C542 563.8 542.5 564 543 564 543.5 564 544 563.8 544.4 563.4 545.2 562.6 545.2 561.4 544.4 560.6L535 551.2 535 546.8C536.4 546.4 537.7 545.7 538.7 544.7L542.5 546.9 546 559.7C546.2 560.6 547 561.2 547.9 561.2 548.1 561.2 548.2 561.2 548.4 561.1 549.5 560.8 550.1 559.7 549.8 558.7L547.4 549.7 550.3 551.4 552.3 558.8C552.5 559.7 553.3 560.3 554.2 560.3 554.4 560.3 554.5 560.3 554.7 560.2 555.8 559.9 556.4 558.8 556.1 557.8L555.2 554.3 559.7 556.9C560 557.1 560.4 557.2 560.7 557.2 561.4 557.2 562.1 556.8 562.4 556.2 563 555 562.7 553.8 561.7 553.3Z" fill="#FFFFFF"/></g></svg>