<svg width="96" height="96" xmlns="http://www.w3.org/2000/svg" xmlns:xlink="http://www.w3.org/1999/xlink" xml:space="preserve" overflow="hidden"><defs><clipPath id="clip0"><rect x="485" y="384" width="96" height="96"/></clipPath></defs><g clip-path="url(#clip0)" transform="translate(-485 -384)"><path d="M567.1 427.5C567.1 424.7 565.9 422.1 563.8 420.3 561.7 418.5 558.9 417.7 556.1 418.2L556.1 418C556.1 414.2 554.3 410.5 551.1 408.3 548 406 544 405.4 540.3 406.6 537.2 400.8 530.5 397.8 524.1 399.4 517.7 400.9 513.1 406.6 513 413.2 508.6 412.4 504.1 414.1 501.4 417.6 498.6 421.1 498 425.8 499.8 429.9 501.6 434 505.5 436.7 510 437L510 437 558 437C563.2 436.8 567.1 432.6 567.1 427.5Z" fill="#FFFFFF"/><path d="M541.1 449 532.6 449 535.8 441 528.2 441 525.1 454 531.5 454 527.6 465Z" fill="#FFFFFF"/><path d="M552.1 445 547.8 445 549.4 441 545.7 441 544.1 447.5 547.3 447.5 545.3 453Z" fill="#FFFFFF"/><path d="M523.1 445 518.8 445 520.4 441 516.7 441 515.1 447.5 518.3 447.5 516.3 453Z" fill="#FFFFFF"/></g></svg>