<svg width="96" height="96" xmlns="http://www.w3.org/2000/svg" xmlns:xlink="http://www.w3.org/1999/xlink" xml:space="preserve" overflow="hidden"><defs><clipPath id="clip0"><rect x="406" y="384" width="96" height="96"/></clipPath></defs><g clip-path="url(#clip0)" transform="translate(-406 -384)"><path d="M448.605 401.078C453.193 401.073 457.411 403.598 459.574 407.644L460.366 409.122 461.96 408.6C467.187 406.88 472.818 409.723 474.538 414.95 474.868 415.954 475.037 417.005 475.037 418.062L475.037 420.554 477.366 420.164C477.774 420.097 478.187 420.063 478.6 420.064 482.729 420.12 486.03 423.512 485.974 427.641 485.921 431.544 482.873 434.75 478.977 435L431.962 435 431.29 434.955C425.801 434.589 421.648 429.842 422.015 424.353 422.381 418.863 427.128 414.711 432.617 415.077 433.007 415.103 433.396 415.152 433.78 415.224L436.105 415.659 436.148 413.294C436.282 406.51 441.819 401.079 448.605 401.078M448.605 399.078C440.729 399.079 434.302 405.383 434.148 413.258 427.637 412.071 421.397 416.387 420.21 422.897 419.023 429.408 423.339 435.648 429.849 436.835 430.281 436.914 430.718 436.969 431.156 437L479.031 437C484.258 436.764 488.304 432.335 488.067 427.108 487.831 421.881 483.402 417.835 478.175 418.071 477.794 418.089 477.414 418.129 477.037 418.192L477.037 418.062C477.034 411.454 471.675 406.099 465.067 406.102 463.8 406.103 462.541 406.305 461.337 406.7 458.821 402.008 453.929 399.079 448.605 399.078Z" fill="#FFFFFF"/><path d="M454.131 465.908C453.579 465.908 453.131 465.46 453.131 464.908 453.131 464.794 453.151 464.68 453.189 464.573L456.44 455.409 449.473 455.409 452.773 441.767C452.894 441.228 453.43 440.89 453.968 441.011 454.507 441.133 454.845 441.668 454.724 442.207 454.722 442.217 454.72 442.226 454.717 442.236L452.017 453.409 459.275 453.409 455.075 465.242C454.933 465.642 454.555 465.909 454.131 465.908Z" fill="#FFFFFF"/><path d="M439.208 454.077C438.656 454.077 438.208 453.63 438.207 453.078 438.207 452.963 438.227 452.85 438.265 452.742L439.592 449 435.782 449 437.531 441.767C437.652 441.228 438.188 440.89 438.726 441.011 439.265 441.133 439.604 441.668 439.482 442.207 439.48 442.217 439.478 442.226 439.475 442.236L438.323 447 442.423 447 440.15 453.411C440.009 453.81 439.631 454.077 439.208 454.077Z" fill="#FFFFFF"/><path d="M469.163 454.077C468.611 454.077 468.163 453.63 468.162 453.078 468.162 452.963 468.182 452.85 468.22 452.742L469.548 449 465.738 449 467.486 441.767C467.616 441.23 468.156 440.9 468.693 441.029 469.23 441.159 469.56 441.699 469.431 442.236L468.279 447 472.379 447 470.104 453.411C469.963 453.81 469.586 454.076 469.163 454.077Z" fill="#FFFFFF"/></g></svg>