<svg width="96" height="96" xmlns="http://www.w3.org/2000/svg" xmlns:xlink="http://www.w3.org/1999/xlink" xml:space="preserve" overflow="hidden"><defs><clipPath id="clip0"><rect x="508" y="439" width="96" height="96"/></clipPath></defs><g clip-path="url(#clip0)" transform="translate(-508 -439)"><path d="M566.04 495.623 566.04 454.69C566.04 449.167 561.563 444.69 556.04 444.69 550.517 444.69 546.04 449.167 546.04 454.69L546.04 495.623C540.758 499.042 537.56 504.898 537.54 511.19 537.54 521.402 545.815 529.683 556.027 529.69 556.379 529.69 556.733 529.68 557.087 529.661 567.288 529.085 575.091 520.349 574.515 510.148 574.181 504.228 571.03 498.827 566.04 495.623ZM572.481 512.613C571.696 521.692 563.701 528.416 554.622 527.631 550.906 527.31 547.409 525.74 544.7 523.176 538.079 516.914 537.788 506.471 544.049 499.85 545.084 498.757 546.263 497.81 547.554 497.036L548.039 496.744 548.039 454.69C548.039 450.272 551.621 446.69 556.039 446.69 560.457 446.69 564.039 450.272 564.039 454.69L564.039 496.744 564.524 497.035C569.945 500.271 573.037 506.324 572.481 512.613Z" fill="#FFFFFF"/><path d="M557.04 502.754 557.04 476.69 555.04 476.69 555.04 502.754C550.378 503.306 547.047 507.533 547.599 512.195 548.151 516.857 552.378 520.188 557.04 519.636 561.702 519.084 565.033 514.857 564.481 510.195 564.019 506.293 560.942 503.216 557.04 502.754ZM556.04 517.69C552.45 517.69 549.54 514.78 549.54 511.19 549.54 507.6 552.45 504.69 556.04 504.69 559.63 504.69 562.54 507.6 562.54 511.19 562.536 514.778 559.628 517.686 556.04 517.69Z" fill="#FFFFFF"/></g></svg>