<svg width="96" height="96" xmlns="http://www.w3.org/2000/svg" xmlns:xlink="http://www.w3.org/1999/xlink" xml:space="preserve" overflow="hidden"><defs><clipPath id="clip0"><rect x="641" y="166" width="96" height="96"/></clipPath></defs><g clip-path="url(#clip0)" transform="translate(-641 -166)"><path d="M722.8 187.7C722.8 182.4 707.6 178 688.9 178 670.2 178 655 182.3 655 187.7 655.1 191.3 656.6 200.6 667.8 208.4 671 210.6 674.4 212.5 677.9 214.2 682.6 216.6 686.7 218.7 689.3 221.9 693.1 226.6 690.8 229 686.6 233.2 685.1 234.6 683.8 236.1 682.5 237.7 680.9 239.5 680.1 241.9 680.3 244.4 680.7 247.3 682.9 249.4 684.7 250.7 685.3 251.1 686.1 251.2 686.8 250.9 687.5 250.6 688 249.9 688.1 249.1 688.4 246.6 689.7 244.2 691.6 242.5 694.4 240 697.7 237.9 701.2 236.5 704.5 235 707.7 233.3 710.8 231.3 713.7 229.3 715.4 227 715.8 224.2 715.8 224 715.8 223.8 715.8 223.6 712.4 224.2 708.8 224.7 705.3 225.1 705.2 225.1 705.2 225.1 705.1 225.1 704 225.1 703.1 224.2 703.1 223.1 703.1 222.1 703.9 221.2 704.9 221.1 708.7 220.7 712.2 220.3 715.3 219.7 714.4 217.2 713.1 214.9 711.4 213 706.5 214 701.6 214.7 696.7 215 696.7 215 696.6 215 696.6 215 695.5 215 694.6 214.1 694.6 213 694.6 212 695.4 211.1 696.5 211 701 210.7 705.4 210.1 709.8 209.3 709.5 207 710.6 204.3 713 201.3 704.6 203.6 693.4 204.8 682.4 204.8 681.3 204.8 680.4 203.9 680.4 202.8 680.4 201.7 681.3 200.8 682.4 200.8 700.3 200.8 713.3 197.8 719.5 194.6 722.2 191.4 722.8 189.1 722.8 187.7ZM663.4 187.7C667.7 186 676.6 184 688.9 184 701.2 184 710.1 185.9 714.4 187.7 710 189.4 701.2 191.4 688.9 191.4 676.6 191.4 667.7 189.4 663.4 187.7Z" fill="#FFFFFF"/></g></svg>