<svg width="96" height="96" xmlns="http://www.w3.org/2000/svg" xmlns:xlink="http://www.w3.org/1999/xlink" xml:space="preserve" overflow="hidden"><defs><clipPath id="clip0"><rect x="534" y="132" width="96" height="96"/></clipPath></defs><g clip-path="url(#clip0)" transform="translate(-534 -132)"><path d="M581.9 146C563.18 146 548 149.806 548 154.5 548 157.892 549.363 166.389 560.786 174.406 563.999 176.567 567.364 178.493 570.856 180.167 575.596 182.573 579.69 184.651 582.243 187.867 586.01 192.608 583.726 194.937 579.583 199.167 578.131 200.603 576.756 202.114 575.464 203.695 573.82 205.505 573.016 207.925 573.25 210.359 573.667 213.259 575.877 215.359 577.657 216.616 578.267 217.052 579.063 217.128 579.744 216.816 580.447 216.5 580.927 215.831 581 215.064 581.34 212.513 582.588 210.17 584.515 208.464 587.349 205.929 590.603 203.907 594.131 202.487 597.473 201.037 600.679 199.292 603.71 197.271 606.617 195.319 608.289 192.923 608.678 190.149 608.827 188.968 608.762 187.77 608.485 186.612 608.485 186.591 608.485 186.572 608.485 186.551 608.485 186.53 608.462 186.5 608.455 186.473 607.638 183.572 606.158 180.902 604.13 178.673 600.756 174.673 602.575 169.527 609.694 162.939 615.235 157.811 615.794 156.357 615.794 154.498 615.8 149.806 600.622 146 581.9 146ZM558.419 150.43C566.124 148.707 574.005 147.891 581.9 148 589.795 147.891 597.676 148.706 605.382 150.43 612.37 152.181 613.8 154.086 613.8 154.5 613.8 154.914 612.372 156.819 605.385 158.57 597.678 160.294 589.796 161.109 581.9 161 574.005 161.109 566.124 160.294 558.418 158.57 551.432 156.819 550.004 154.914 550.004 154.5 550.004 154.086 551.433 152.181 558.419 150.43ZM608.339 161.474C606.082 163.477 604.102 165.773 602.452 168.3 594.106 169.944 585.614 170.738 577.108 170.672 576.556 170.672 576.108 171.12 576.108 171.672 576.108 172.224 576.556 172.672 577.108 172.672 585.209 172.721 593.297 172.018 601.268 170.572 600.226 172.777 600.168 175.321 601.107 177.572 597.653 178.156 594.036 178.592 590.314 178.853 589.762 178.872 589.33 179.336 589.349 179.888 589.368 180.44 589.832 180.872 590.384 180.853L590.455 180.853C594.388 180.581 598.305 180.104 602.188 179.424 602.325 179.607 602.452 179.793 602.604 179.973 604.162 181.72 605.386 183.738 606.217 185.926 603.517 186.376 600.739 186.752 597.917 187.012 597.37 187.091 596.991 187.598 597.07 188.144 597.138 188.614 597.526 188.972 598 189 598.03 189 598.061 189 598.093 189 601.017 188.73 603.893 188.341 606.685 187.872 606.779 188.538 606.782 189.212 606.696 189.879 606.389 192.066 605.01 193.997 602.596 195.619 599.652 197.577 596.54 199.27 593.296 200.676 589.579 202.175 586.152 204.311 583.17 206.989 580.887 209.03 579.41 211.821 579.008 214.857 579.005 214.916 578.97 214.968 578.917 214.993 578.881 215.012 578.838 215.007 578.807 214.981 577.348 213.953 575.544 212.268 575.227 210.072 575.084 208.185 575.737 206.324 577.027 204.939 578.275 203.411 579.604 201.952 581.009 200.567 585.12 196.367 588.671 192.75 583.809 186.625 580.985 183.069 576.509 180.796 571.762 178.388 568.355 176.755 565.071 174.879 561.934 172.773 554.194 167.341 551.477 161.657 550.566 157.773 550.566 157.76 550.566 157.755 550.58 157.762 555.68 160.834 567.78 163 581.9 163 594.236 163 605.028 161.347 610.958 158.877 610.981 158.867 610.989 158.87 610.972 158.888 610.218 159.685 609.426 160.468 608.339 161.474Z" fill="#FFFFFF"/></g></svg>