<svg width="96" height="96" xmlns="http://www.w3.org/2000/svg" xmlns:xlink="http://www.w3.org/1999/xlink" xml:space="preserve" overflow="hidden"><defs><clipPath id="clip0"><rect x="719" y="192" width="96" height="96"/></clipPath></defs><g clip-path="url(#clip0)" transform="translate(-719 -192)"><path d="M735 230C735 230.552 735.448 231 736 231L764 231C768.971 231 773 226.971 773 222 773 217.029 768.971 213 764 213 759.029 213 755 217.029 755 222L755 223C755 223.552 755.448 224 756 224 756.552 224 757 223.552 757 223L757 222C757 218.134 760.134 215 764 215 767.866 215 771 218.134 771 222 771 225.866 767.866 229 764 229L736 229C735.448 229 735 229.448 735 230Z" fill="#FFFFFF"/><path d="M794 217C786.816 217.004 780.996 222.832 781 230.016 781.001 231.486 781.251 232.946 781.74 234.333 781.909 234.859 782.472 235.148 782.998 234.979 783.524 234.81 783.813 234.246 783.644 233.721 783.638 233.702 783.632 233.685 783.625 233.667 781.6 227.939 784.601 221.654 790.329 219.629 796.056 217.604 802.341 220.605 804.367 226.333 806.392 232.061 803.39 238.346 797.663 240.371 796.486 240.787 795.248 240.999 794 241L728 241C727.448 241 727 241.448 727 242 727 242.552 727.448 243 728 243L794 243C801.18 243 807 237.18 807 230 807 222.82 801.18 217 794 217Z" fill="#FFFFFF"/><path d="M775 253 740 253C739.448 253 739 253.448 739 254 739 254.552 739.448 255 740 255L775 255C777.761 255.001 779.999 257.241 779.998 260.002 779.997 262.763 777.757 265.001 774.996 265 772.878 264.999 770.99 263.664 770.284 261.667 770.1 261.146 769.529 260.873 769.008 261.057 768.487 261.241 768.214 261.812 768.398 262.333 769.687 265.978 773.686 267.888 777.331 266.6 780.976 265.311 782.886 261.312 781.598 257.667 780.609 254.871 777.966 253.001 775 253Z" fill="#FFFFFF"/></g></svg>